<svg xmlns="http://www.w3.org/2000/svg" width="2500" height="1686" viewBox="0 0 2500 1686">
<rect x="0" y="0" width="2500" height="1686" fill="#F7F4EF"/>
<g id="slot-a">
<rect x="8" y="8" width="817" height="827" rx="0" fill="#2B2622" stroke="#2B2622" stroke-width="2"/>
<g transform="translate(302 172) scale(9.542)" fill="none" stroke="#F7F4EF" stroke-width="2" stroke-linecap="round" stroke-linejoin="round"><rect x="3" y="5" width="18" height="16" rx="2"/><path d="M3 10h18M8 3v4M16 3v4"/></g>
<text x="417" y="542" font-family="Noto Sans JP" font-weight="500" font-size="108" fill="#F7F4EF" text-anchor="middle">ご予約</text>
<text x="417" y="663" font-family="Noto Sans JP" font-weight="400" font-size="67" fill="#F7F4EF" text-anchor="middle">日時を選ぶ</text>
</g>
<g id="slot-b">
<rect x="841" y="8" width="817" height="827" rx="0" fill="#FFFFFF" stroke="#E3DCD1" stroke-width="2"/>
<g transform="translate(1135 172) scale(9.542)" fill="none" stroke="#9C7A4B" stroke-width="2" stroke-linecap="round" stroke-linejoin="round"><path d="M9 6h11M9 12h11M9 18h11"/><circle cx="5" cy="6" r="1"/><circle cx="5" cy="12" r="1"/><circle cx="5" cy="18" r="1"/></g>
<text x="1250" y="542" font-family="Noto Sans JP" font-weight="500" font-size="108" fill="#2B2622" text-anchor="middle">メニュー</text>
<text x="1250" y="663" font-family="Noto Sans JP" font-weight="400" font-size="67" fill="#6F655B" text-anchor="middle">料金・所要時間</text>
</g>
<g id="slot-c">
<rect x="1674" y="8" width="818" height="827" rx="0" fill="#FFFFFF" stroke="#E3DCD1" stroke-width="2"/>
<g transform="translate(1968 230) scale(9.542)" fill="none" stroke="#9C7A4B" stroke-width="2" stroke-linecap="round" stroke-linejoin="round"><path d="M4 5h16a1 1 0 0 1 1 1v10a1 1 0 0 1-1 1H10l-5 4v-4H4a1 1 0 0 1-1-1V6a1 1 0 0 1 1-1z"/></g>
<text x="2083" y="600" font-family="Noto Sans JP" font-weight="500" font-size="108" fill="#2B2622" text-anchor="middle">お問い合わせ</text>
</g>
<g id="slot-d">
<rect x="8" y="851" width="817" height="827" rx="0" fill="#FFFFFF" stroke="#E3DCD1" stroke-width="2"/>
<g transform="translate(302 1073) scale(9.542)" fill="none" stroke="#9C7A4B" stroke-width="2" stroke-linecap="round" stroke-linejoin="round"><path d="M12 21s-7-6.2-7-11a7 7 0 0 1 14 0c0 4.8-7 11-7 11z"/><circle cx="12" cy="10" r="2.5"/></g>
<text x="417" y="1443" font-family="Noto Sans JP" font-weight="500" font-size="108" fill="#2B2622" text-anchor="middle">アクセス</text>
</g>
<g id="slot-e">
<rect x="841" y="851" width="817" height="827" rx="0" fill="#FFFFFF" stroke="#E3DCD1" stroke-width="2"/>
<g transform="translate(1135 1073) scale(9.542)" fill="none" stroke="#9C7A4B" stroke-width="2" stroke-linecap="round" stroke-linejoin="round"><circle cx="12" cy="12" r="9"/><path d="M12 7v5l3 2"/></g>
<text x="1250" y="1443" font-family="Noto Sans JP" font-weight="500" font-size="108" fill="#2B2622" text-anchor="middle">営業時間</text>
</g>
<g id="slot-f">
<rect x="1674" y="851" width="818" height="827" rx="0" fill="#FFFFFF" stroke="#E3DCD1" stroke-width="2"/>
<g transform="translate(1968 1015) scale(9.542)" fill="none" stroke="#9C7A4B" stroke-width="2" stroke-linecap="round" stroke-linejoin="round"><rect x="3" y="7" width="18" height="13" rx="2"/><path d="M8 7l2-3h4l2 3"/><circle cx="12" cy="13.5" r="3.5"/></g>
<text x="2083" y="1385" font-family="Noto Sans JP" font-weight="500" font-size="108" fill="#2B2622" text-anchor="middle">スタイル写真</text>
<text x="2083" y="1506" font-family="Noto Sans JP" font-weight="400" font-size="67" fill="#6F655B" text-anchor="middle">Instagram</text>
</g>
</svg>
